<?xml version="1.0" encoding="utf-8"?>
<!-- Generator: Adobe Illustrator 23.0.1, SVG Export Plug-In . SVG Version: 6.00 Build 0)  -->
<svg version="1.1" id="Layer_1" xmlns="http://www.w3.org/2000/svg" xmlns:xlink="http://www.w3.org/1999/xlink" x="0px" y="0px"
	 viewBox="0 0 158 158" style="enable-background:new 0 0 158 158;" xml:space="preserve">
<style type="text/css">
	.st0{fill:#181818;}
	.st1{fill:#06AF9A;}
	.st2{fill:none;}
	.st3{fill:#1AA670;}
	.st4{fill:#039A89;}
	.st5{fill:#25B482;}
	.st6{fill:#06A995;}
	.st7{fill:#FFFFFF;}
	.st8{fill:#393939;}
	.st9{fill:#A8A9AC;}
	.st10{fill:#A4C639;}
	.st11{fill:#474747;}
	.st12{fill:#F0EFEF;}
	.st13{fill:#F05225;}
	.st14{fill:#7FBB42;}
	.st15{fill:#33A0DA;}
	.st16{fill:#FDB813;}
	.st17{fill:#050507;}
	.st18{fill:#FDFEFC;}
	.st19{fill:#010101;fill-opacity:0.2588;}
	.st20{opacity:0.3;fill:#010101;enable-background:new    ;}
	.st21{fill:url(#path28795-9-5_1_);}
	.st22{fill:url(#path28795-3_1_);}
	.st23{fill:url(#path28849-2_1_);}
	.st24{fill:#7D7D7D;}
	.st25{fill:#161615;}
	.st26{fill:url(#path28887-6_1_);}
	.st27{clip-path:url(#SVGID_2_);fill:url(#path28972-5_1_);}
	.st28{fill:url(#path28795-92-2_1_);}
	.st29{fill:url(#path28795-9-2-2_1_);}
	.st30{fill:url(#path29465-8_1_);}
	.st31{fill:url(#path28461-2_1_);}
	.st32{fill:#D9B428;}
	.st33{fill:#5F461B;}
	.st34{fill:url(#path27476-4_1_);}
	.st35{fill:#F6DA4A;}
	.st36{opacity:0.8;fill:url(#path28396-7_1_);enable-background:new    ;}
	.st37{opacity:0.8;fill:url(#path28398-7_1_);enable-background:new    ;}
	.st38{fill:url(#path28570-8_1_);}
	.st39{clip-path:url(#SVGID_4_);fill:url(#path29551-9_1_);}
	.st40{clip-path:url(#SVGID_6_);fill:#838385;}
	.st41{opacity:0.25;fill:url(#path4400-1_1_);enable-background:new    ;}
	.st42{opacity:0.42;fill:url(#path4400-2-8_1_);enable-background:new    ;}
	.st43{opacity:0.2;fill:url(#path4491-9_1_);enable-background:new    ;}
	.st44{opacity:0.11;fill:#010101;enable-background:new    ;}
	.st45{fill:#838385;}
	.st46{opacity:0.2;fill:url(#path14483-7-4_1_);enable-background:new    ;}
	.st47{clip-path:url(#SVGID_8_);fill:url(#path14296-0_1_);}
	.st48{clip-path:url(#SVGID_10_);fill:#CC8A2A;}
	.st49{clip-path:url(#SVGID_12_);fill:#F4C021;}
	.st50{fill:url(#path16493_1_);}
	.st51{opacity:0.75;fill:#7D7D7D;enable-background:new    ;}
	.st52{opacity:0.25;fill:#7D7D7D;enable-background:new    ;}
	.st53{opacity:0.35;fill:url(#path29714-8-2_1_);enable-background:new    ;}
	.st54{opacity:0.35;fill:url(#path29714-8-3-0_1_);enable-background:new    ;}
	.st55{clip-path:url(#SVGID_14_);fill:url(#path29714-3-9-9_1_);}
	.st56{clip-path:url(#SVGID_16_);fill:url(#path29714-3-9-3-8_1_);}
	.st57{opacity:0.95;clip-path:url(#SVGID_18_);fill:#7D7D7D;enable-background:new    ;}
	.st58{clip-path:url(#SVGID_20_);}
	.st59{fill:url(#path4635-1_1_);}
	.st60{fill:#D79A28;}
	.st61{fill:#F4BD18;}
	.st62{fill:url(#path4792-8_1_);}
</style>
<circle class="st8" cx="79" cy="79" r="79"/>
<g>
	<path class="st10" d="M42.38,61.2c-3.5,0-6.28,2.78-6.28,6.28v26.16c0,3.5,2.78,6.28,6.28,6.28c3.5,0,6.28-2.78,6.28-6.28V67.47
		C48.66,63.98,45.88,61.2,42.38,61.2z"/>
	<path class="st10" d="M115.62,61.2c-3.5,0-6.28,2.78-6.28,6.28v26.16c0,3.5,2.78,6.28,6.28,6.28s6.28-2.78,6.28-6.28V67.47
		C121.9,63.98,119.12,61.2,115.62,61.2z"/>
	<path class="st10" d="M51,102.86c0,3.75,3.02,6.77,6.77,6.77h4.49v13.85c0,3.5,2.78,6.28,6.28,6.28c3.5,0,6.28-2.78,6.28-6.28
		v-13.85h8.37v13.85c0,3.5,2.78,6.28,6.28,6.28c3.5,0,6.28-2.78,6.28-6.28v-13.85h4.49c3.75,0,6.77-3.02,6.77-6.77V62.27H51V102.86z
		"/>
	<path class="st10" d="M92.73,37.56l4.42-7.99c0.25-0.45,0.1-0.96-0.35-1.21c-0.14-0.08-0.27-0.11-0.42-0.12
		c-0.32,0-0.62,0.16-0.79,0.46l-4.48,8.08c-3.67-1.63-7.78-2.54-12.12-2.54s-8.45,0.91-12.12,2.54L62.4,28.7
		c-0.17-0.31-0.47-0.46-0.79-0.46c-0.15,0-0.29,0.04-0.42,0.12c-0.45,0.25-0.6,0.76-0.35,1.21l4.42,7.99
		C56.76,41.99,51.01,50.4,51,60.06H107C106.99,50.4,101.24,41.99,92.73,37.56z M66.08,49.81c-1.28,0-2.34-1.06-2.34-2.34
		c0-1.28,1.06-2.34,2.34-2.34c1.28,0,2.34,1.06,2.34,2.34C68.41,48.75,67.35,49.81,66.08,49.81z M91.92,49.81
		c-1.28,0-2.34-1.06-2.34-2.34c0-1.28,1.06-2.34,2.34-2.34c1.28,0,2.34,1.06,2.34,2.34C94.26,48.75,93.2,49.81,91.92,49.81z"/>
</g>
</svg>
