<?xml version="1.0" encoding="utf-8"?>
<!-- Generator: Adobe Illustrator 23.0.1, SVG Export Plug-In . SVG Version: 6.00 Build 0)  -->
<svg version="1.1" id="Layer_1" xmlns="http://www.w3.org/2000/svg" xmlns:xlink="http://www.w3.org/1999/xlink" x="0px" y="0px"
	 viewBox="0 0 158 158" style="enable-background:new 0 0 158 158;" xml:space="preserve">
<style type="text/css">
	.st0{fill:#181818;}
	.st1{fill:#06AF9A;}
	.st2{fill:none;}
	.st3{fill:#1AA670;}
	.st4{fill:#039A89;}
	.st5{fill:#25B482;}
	.st6{fill:#06A995;}
	.st7{fill:#FFFFFF;}
	.st8{fill:#393939;}
	.st9{fill:#A8A9AC;}
	.st10{fill:#A4C639;}
	.st11{fill:#474747;}
	.st12{fill:#F0EFEF;}
	.st13{fill:#F05225;}
	.st14{fill:#7FBB42;}
	.st15{fill:#33A0DA;}
	.st16{fill:#FDB813;}
	.st17{fill:#050507;}
	.st18{fill:#FDFEFC;}
	.st19{fill:#010101;fill-opacity:0.2588;}
	.st20{opacity:0.3;fill:#010101;enable-background:new    ;}
	.st21{fill:url(#path28795-9-5_1_);}
	.st22{fill:url(#path28795-3_1_);}
	.st23{fill:url(#path28849-2_1_);}
	.st24{fill:#7D7D7D;}
	.st25{fill:#161615;}
	.st26{fill:url(#path28887-6_1_);}
	.st27{clip-path:url(#SVGID_2_);fill:url(#path28972-5_1_);}
	.st28{fill:url(#path28795-92-2_1_);}
	.st29{fill:url(#path28795-9-2-2_1_);}
	.st30{fill:url(#path29465-8_1_);}
	.st31{fill:url(#path28461-2_1_);}
	.st32{fill:#D9B428;}
	.st33{fill:#5F461B;}
	.st34{fill:url(#path27476-4_1_);}
	.st35{fill:#F6DA4A;}
	.st36{opacity:0.8;fill:url(#path28396-7_1_);enable-background:new    ;}
	.st37{opacity:0.8;fill:url(#path28398-7_1_);enable-background:new    ;}
	.st38{fill:url(#path28570-8_1_);}
	.st39{clip-path:url(#SVGID_4_);fill:url(#path29551-9_1_);}
	.st40{clip-path:url(#SVGID_6_);fill:#838385;}
	.st41{opacity:0.25;fill:url(#path4400-1_1_);enable-background:new    ;}
	.st42{opacity:0.42;fill:url(#path4400-2-8_1_);enable-background:new    ;}
	.st43{opacity:0.2;fill:url(#path4491-9_1_);enable-background:new    ;}
	.st44{opacity:0.11;fill:#010101;enable-background:new    ;}
	.st45{fill:#838385;}
	.st46{opacity:0.2;fill:url(#path14483-7-4_1_);enable-background:new    ;}
	.st47{clip-path:url(#SVGID_8_);fill:url(#path14296-0_1_);}
	.st48{clip-path:url(#SVGID_10_);fill:#CC8A2A;}
	.st49{clip-path:url(#SVGID_12_);fill:#F4C021;}
	.st50{fill:url(#path16493_1_);}
	.st51{opacity:0.75;fill:#7D7D7D;enable-background:new    ;}
	.st52{opacity:0.25;fill:#7D7D7D;enable-background:new    ;}
	.st53{opacity:0.35;fill:url(#path29714-8-2_1_);enable-background:new    ;}
	.st54{opacity:0.35;fill:url(#path29714-8-3-0_1_);enable-background:new    ;}
	.st55{clip-path:url(#SVGID_14_);fill:url(#path29714-3-9-9_1_);}
	.st56{clip-path:url(#SVGID_16_);fill:url(#path29714-3-9-3-8_1_);}
	.st57{opacity:0.95;clip-path:url(#SVGID_18_);fill:#7D7D7D;enable-background:new    ;}
	.st58{clip-path:url(#SVGID_20_);}
	.st59{fill:url(#path4635-1_1_);}
	.st60{fill:#D79A28;}
	.st61{fill:#F4BD18;}
	.st62{fill:url(#path4792-8_1_);}
</style>
<circle class="st8" cx="79" cy="79" r="79"/>
<g>
	<rect x="44.19" y="58.94" class="st11" width="70.18" height="46.06"/>
	<path class="st12" d="M121.34,46.64c-0.83-2.18-2.81-5.24-5.62-7.41c-1.65-1.24-3.53-2.45-6.17-3.23c-2.87-0.83-6.4-1.1-10.7-1.1
		H59.15c-4.33,0-7.83,0.28-10.67,1.13c-2.65,0.8-4.6,1.98-6.2,3.23c-2.81,2.15-4.8,5.24-5.65,7.41c-1.71,4.38-1.74,9.34-1.74,12.49
		v39.69c0,3.14,0.03,8.1,1.74,12.51c0.85,2.18,2.84,5.24,5.65,7.41c1.63,1.24,3.56,2.45,6.2,3.23c2.84,0.83,6.34,1.1,10.67,1.1
		h39.69c4.33,0,7.83-0.28,10.67-1.13c2.65-0.8,4.6-1.98,6.2-3.23c2.81-2.15,4.8-5.24,5.65-7.41c1.74-4.38,1.74-9.37,1.74-12.51
		V59.13c0-3.14-0.03-8.1-1.74-12.51L121.34,46.64z M52.37,95.54h-3.28v-19.6h3.28V95.54z M50.75,72.63c-1.1,0-2.04-0.91-2.04-2.04
		s0.91-2.04,2.04-2.04s2.07,0.91,2.07,2.04C52.79,71.72,51.88,72.63,50.75,72.63z M70.45,96.04c-8.66,0-14.11-6.17-14.11-16.02
		s5.46-16.04,14.11-16.04s14.11,6.2,14.11,16.04S79.11,96.04,70.45,96.04z M99.01,96.04c-6.51,0-11.08-3.58-11.38-8.93h2.95
		c0.33,3.72,3.83,6.26,8.71,6.26c4.66,0,7.99-2.54,7.99-6.04c0-2.89-2.01-4.63-6.62-5.79l-3.86-0.99c-5.76-1.46-8.32-3.89-8.32-7.99
		c0-5.02,4.52-8.6,10.64-8.6c6.06,0,10.47,3.58,10.67,8.52h-2.95c-0.28-3.5-3.39-5.84-7.8-5.84c-4.3,0-7.5,2.4-7.5,5.82
		c0,2.67,1.93,4.24,6.51,5.4l3.36,0.85c6.26,1.57,8.88,3.97,8.88,8.3C110.29,92.45,105.9,96.04,99.01,96.04L99.01,96.04z
		 M81.56,80.02c0,8.13-4.3,13.29-11.11,13.29s-11.08-5.15-11.08-13.29c0-8.16,4.27-13.31,11.08-13.31S81.56,71.86,81.56,80.02z"/>
</g>
</svg>
