<?xml version="1.0" encoding="utf-8"?>
<!-- Generator: Adobe Illustrator 23.0.1, SVG Export Plug-In . SVG Version: 6.00 Build 0)  -->
<svg version="1.1" id="Layer_1" xmlns="http://www.w3.org/2000/svg" xmlns:xlink="http://www.w3.org/1999/xlink" x="0px" y="0px"
	 viewBox="0 0 158 158" style="enable-background:new 0 0 158 158;" xml:space="preserve">
<style type="text/css">
	.st0{fill:#181818;}
	.st1{fill:#06AF9A;}
	.st2{fill:none;}
	.st3{fill:#1AA670;}
	.st4{fill:#039A89;}
	.st5{fill:#25B482;}
	.st6{fill:#06A995;}
	.st7{fill:#FFFFFF;}
	.st8{fill:#393939;}
	.st9{fill:#A8A9AC;}
	.st10{fill:#A4C639;}
	.st11{fill:#474747;}
	.st12{fill:#F0EFEF;}
	.st13{fill:#F05225;}
	.st14{fill:#7FBB42;}
	.st15{fill:#33A0DA;}
	.st16{fill:#FDB813;}
	.st17{fill:#050507;}
	.st18{fill:#FDFEFC;}
	.st19{fill:#010101;fill-opacity:0.2588;}
	.st20{opacity:0.3;fill:#010101;enable-background:new    ;}
	.st21{fill:url(#path28795-9-5_1_);}
	.st22{fill:url(#path28795-3_1_);}
	.st23{fill:url(#path28849-2_1_);}
	.st24{fill:#7D7D7D;}
	.st25{fill:#161615;}
	.st26{fill:url(#path28887-6_1_);}
	.st27{clip-path:url(#SVGID_2_);fill:url(#path28972-5_1_);}
	.st28{fill:url(#path28795-92-2_1_);}
	.st29{fill:url(#path28795-9-2-2_1_);}
	.st30{fill:url(#path29465-8_1_);}
	.st31{fill:url(#path28461-2_1_);}
	.st32{fill:#D9B428;}
	.st33{fill:#5F461B;}
	.st34{fill:url(#path27476-4_1_);}
	.st35{fill:#F6DA4A;}
	.st36{opacity:0.8;fill:url(#path28396-7_1_);enable-background:new    ;}
	.st37{opacity:0.8;fill:url(#path28398-7_1_);enable-background:new    ;}
	.st38{fill:url(#path28570-8_1_);}
	.st39{clip-path:url(#SVGID_4_);fill:url(#path29551-9_1_);}
	.st40{clip-path:url(#SVGID_6_);fill:#838385;}
	.st41{opacity:0.25;fill:url(#path4400-1_1_);enable-background:new    ;}
	.st42{opacity:0.42;fill:url(#path4400-2-8_1_);enable-background:new    ;}
	.st43{opacity:0.2;fill:url(#path4491-9_1_);enable-background:new    ;}
	.st44{opacity:0.11;fill:#010101;enable-background:new    ;}
	.st45{fill:#838385;}
	.st46{opacity:0.2;fill:url(#path14483-7-4_1_);enable-background:new    ;}
	.st47{clip-path:url(#SVGID_8_);fill:url(#path14296-0_1_);}
	.st48{clip-path:url(#SVGID_10_);fill:#CC8A2A;}
	.st49{clip-path:url(#SVGID_12_);fill:#F4C021;}
	.st50{fill:url(#path16493_1_);}
	.st51{opacity:0.75;fill:#7D7D7D;enable-background:new    ;}
	.st52{opacity:0.25;fill:#7D7D7D;enable-background:new    ;}
	.st53{opacity:0.35;fill:url(#path29714-8-2_1_);enable-background:new    ;}
	.st54{opacity:0.35;fill:url(#path29714-8-3-0_1_);enable-background:new    ;}
	.st55{clip-path:url(#SVGID_14_);fill:url(#path29714-3-9-9_1_);}
	.st56{clip-path:url(#SVGID_16_);fill:url(#path29714-3-9-3-8_1_);}
	.st57{opacity:0.95;clip-path:url(#SVGID_18_);fill:#7D7D7D;enable-background:new    ;}
	.st58{clip-path:url(#SVGID_20_);}
	.st59{fill:url(#path4635-1_1_);}
	.st60{fill:#D79A28;}
	.st61{fill:#F4BD18;}
	.st62{fill:url(#path4792-8_1_);}
</style>
<circle class="st8" cx="79" cy="79" r="79"/>
<g>
	<g id="surface1_4_">
		<path class="st9" d="M120.83,101.75c-2.28,5.07-3.38,7.33-6.32,11.81c-4.11,6.25-9.91,14.06-17.07,14.11
			c-6.38,0.06-8.02-4.16-16.68-4.08c-8.65,0.04-10.45,4.17-16.83,4.1c-7.17-0.07-12.65-7.09-16.76-13.34
			c-11.49-17.5-12.71-38.03-5.61-48.94c5.03-7.74,12.97-12.29,20.44-12.29c7.61,0,12.39,4.18,18.67,4.18c6.1,0,9.81-4.18,18.61-4.18
			c6.65,0,13.68,3.62,18.7,9.87C101.56,72,104.23,95.47,120.83,101.75z M92.61,46.12c3.2-4.11,5.63-9.91,4.75-15.81
			c-5.22,0.36-11.32,3.69-14.88,8c-3.23,3.94-5.91,9.77-4.87,15.42C83.3,53.92,89.2,50.52,92.61,46.12z"/>
	</g>
</g>
</svg>
